<svg width="244" height="243" viewBox="0 0 244 243" fill="none" xmlns="http://www.w3.org/2000/svg">
<g clip-path="url(#clip0_8_2)">
<path fill-rule="evenodd" clip-rule="evenodd" d="M108.4 37.9675L93.7363 83.0983H39.2051C27.5804 83.0983 22.7471 97.9737 32.1516 104.807L76.2683 136.859L59.4172 188.721C55.825 199.777 68.4788 208.971 77.8833 202.138L122 170.085L166.117 202.138C175.521 208.971 188.175 199.777 184.583 188.721L167.732 136.859L170.339 134.965L166.026 128.21L160.678 132.095C159.276 133.114 158.69 134.919 159.225 136.567L176.974 191.194C178.172 194.879 173.954 197.943 170.819 195.666L124.351 161.905C122.949 160.886 121.051 160.886 119.649 161.905L73.1811 195.666C70.0462 197.943 65.8283 194.879 67.0257 191.194L84.7748 136.567C85.3103 134.919 84.7237 133.114 83.3217 132.095L36.8539 98.3344C33.7191 96.0568 35.3302 91.0983 39.2051 91.0983H96.6424C98.3753 91.0983 99.9112 89.9825 100.447 88.3344L113.975 46.698L108.4 37.9675Z" fill="#27F7C5"/>
<path fill-rule="evenodd" clip-rule="evenodd" d="M176.73 133.653L185.771 79.357L193.663 80.671L184.622 134.967L176.73 133.653Z" fill="#27F7C5"/>
<path fill-rule="evenodd" clip-rule="evenodd" d="M185.771 79.357L214.475 39.702L221.188 44.0543L192.484 83.7094L185.771 79.357Z" fill="#27F7C5"/>
<path fill-rule="evenodd" clip-rule="evenodd" d="M111.296 42.1554L220.856 34.5642L221.665 42.5232L112.105 50.1143L111.296 42.1554Z" fill="#27F7C5"/>
<path fill-rule="evenodd" clip-rule="evenodd" d="M185.456 134.15C185.319 133.881 185.181 133.608 185.039 133.332C178.343 120.287 167.031 103.049 152.621 84.8879C138.212 66.7269 123.842 51.5974 112.422 41.81C112.181 41.6033 111.942 41.3997 111.705 41.1992C111.841 41.4691 111.98 41.7417 112.121 42.0172C118.817 55.0621 130.129 72.3007 144.539 90.4617C158.949 108.623 173.319 123.752 184.739 133.54C184.98 133.746 185.219 133.95 185.456 134.15ZM134.66 97.2743C164.144 134.434 194.278 160.26 201.966 154.959C209.654 149.657 191.984 115.235 162.5 78.0753C133.016 40.9153 102.882 15.0891 95.1945 20.3908C87.5067 25.6925 105.176 60.1144 134.66 97.2743Z" fill="#27F7C5"/>
<path fill-rule="evenodd" clip-rule="evenodd" d="M221.931 34.7433L234.113 67.7725L226.465 70.1185L214.283 37.0893L221.931 34.7433Z" fill="#27F7C5"/>
<path fill-rule="evenodd" clip-rule="evenodd" d="M212.403 36.5696L232.566 66.0895L225.674 70.1517L205.511 40.6318L212.403 36.5696Z" fill="#27F7C5"/>
<path fill-rule="evenodd" clip-rule="evenodd" d="M226.142 62.5508L245.702 64.5355L244.968 72.5016L225.407 70.517L226.142 62.5508Z" fill="#27F7C5"/>
</g>
<defs>
<clipPath id="clip0_8_2">
<rect width="244" height="243" fill="white"/>
</clipPath>
</defs>
    <style>
        path {
            @apply fill-primary-container
        }
    </style>
</svg>
